<svg viewBox="0 0 1000 1000" width="1000" height="1000" xmlns="http://www.w3.org/2000/svg">



  <view id="0" viewBox="0 0 100 100" />
   <rect x="0" y="0" width="100" height="100" fill="none"/>

  <view id="1" viewBox="0 100 100 100" />
   <rect x="0" y="100" width="100" height="100" fill="black"/>




   <!-- grey jump  -->
 <view id="4" viewBox="0     400         100          100"  />
       <path
     transform="translate(31 428), scale(0.36)" 
     fill="#808080"
     d="m 8.31,108.22 c 4.77,-0.44 18.07,-1.58 22.24,-8.01 0.42,-0.65 3.9,-6.42 3.9,-6.45 l 14.36,5.47 c 0.31,1.57 -8.11,13.33 -9.64,14.6 -1.95,1.62 -3.82,2.51 -5.8,3.26 -6.65,2.5 -12.37,4.52 -19.91,5.79 z m 29.7,-58.77 -6.14,22.24 c -1.46,7.19 0.12,13.28 6.89,17.48 3.53,2.19 4.52,2.08 8.56,3.25 l 18.65,4.28 c 1.11,0.25 23.27,18.19 25.35,19.98 l 9.57,-8.62 C 102.28,106.81 78.81,86.1 74.72,84.07 55.3,74.44 54.48,85.45 61.79,57.66 c 3.71,3.62 6.52,7.66 13.56,10.42 8.57,2.19 13.35,-0.83 20.48,-3.14 l 9.2127,-3.81 -4.57,-12.91 -9.2127,3.81 c -0.3,0.1 -1.06,0.38 -2.39,0.84 -3.3,0.8 -6.22,2.9 -8.31,1.89 C 73.63,51.41 69.52,37.27 50.17,35.73 47.26,35.5 41.85,34.77 37.63,34.65 21.94,33.74 16.59,39.62 8,48.44 4.05,52.26 3.99,52.22 0,56.01 l 10.15,10.1 c 4.02,-3.82 4.11,-3.8 8.09,-7.66 3.61,-3.45 6.08,-7.01 9.79,-8.53 2.41,-0.99 5.52,-0.58 9.22,-0.51 0.26,0.02 0.51,0.03 0.76,0.04 z M 56.12,0.73 C 63.92,-1.8 72.3,2.47 74.84,10.28 77.37,18.08 73.1,26.46 65.29,29 57.49,31.53 49.11,27.26 46.57,19.45 44.04,11.64 48.32,3.26 56.12,0.73 Z"
     />



 <view id="10" viewBox="100 0 100 100" />
    <rect x="100" y="0" width="100" height="100" fill="#ff0000 " />


 <view id="11" viewBox="100 100 100 100" />
    <rect x="100" y="100" width="100" height="100" fill="#af0000  "/>

 <view id="12" viewBox="100 200 100 100" />
    <rect x="100" y="200" width="100" height="100" fill="#6f0000"/>




 <view id="13" viewBox="100     300         100          100"  />
         <rect x="100" y="300" width="100" height="100" fill="#a778899  "/>
        <rect x="114" y="314" width="72" height="72" fill="none" stroke="#af0000" stroke-width="12"/>
  




 <view id="14" viewBox="100     400         100          100"  />
    <rect x="102" y="402" width="96" height="96" fill="none" stroke="#af0000" stroke-width="4"/>
       <path
     transform="translate(131 428), scale(0.36)" 
     fill="#af0000"
     d="m 8.31,108.22 c 4.77,-0.44 18.07,-1.58 22.24,-8.01 0.42,-0.65 3.9,-6.42 3.9,-6.45 l 14.36,5.47 c 0.31,1.57 -8.11,13.33 -9.64,14.6 -1.95,1.62 -3.82,2.51 -5.8,3.26 -6.65,2.5 -12.37,4.52 -19.91,5.79 z m 29.7,-58.77 -6.14,22.24 c -1.46,7.19 0.12,13.28 6.89,17.48 3.53,2.19 4.52,2.08 8.56,3.25 l 18.65,4.28 c 1.11,0.25 23.27,18.19 25.35,19.98 l 9.57,-8.62 C 102.28,106.81 78.81,86.1 74.72,84.07 55.3,74.44 54.48,85.45 61.79,57.66 c 3.71,3.62 6.52,7.66 13.56,10.42 8.57,2.19 13.35,-0.83 20.48,-3.14 l 9.2127,-3.81 -4.57,-12.91 -9.2127,3.81 c -0.3,0.1 -1.06,0.38 -2.39,0.84 -3.3,0.8 -6.22,2.9 -8.31,1.89 C 73.63,51.41 69.52,37.27 50.17,35.73 47.26,35.5 41.85,34.77 37.63,34.65 21.94,33.74 16.59,39.62 8,48.44 4.05,52.26 3.99,52.22 0,56.01 l 10.15,10.1 c 4.02,-3.82 4.11,-3.8 8.09,-7.66 3.61,-3.45 6.08,-7.01 9.79,-8.53 2.41,-0.99 5.52,-0.58 9.22,-0.51 0.26,0.02 0.51,0.03 0.76,0.04 z M 56.12,0.73 C 63.92,-1.8 72.3,2.47 74.84,10.28 77.37,18.08 73.1,26.46 65.29,29 57.49,31.53 49.11,27.26 46.57,19.45 44.04,11.64 48.32,3.26 56.12,0.73 Z"
     />






















 <view id="20" viewBox="200 0 100 100" />
    <rect x="200" y="0" width="100" height="100" fill="white"/>
    <circle cx="250" cy="50" r="50" fill="#0000ff" />

 <view id="21" viewBox="200 100 100 100" />
    <rect x="200" y="100" width="100" height="100" fill="white"/>
    <circle cx="250" cy="150" r="50" fill="#0000af" />

 <view id="22" viewBox="200 200 100 100" />
    <rect x="200" y="200" width="100" height="100" fill="white"/>
    <circle cx="250" cy="250" r="50" fill="#00006f" />

 <view id="23" viewBox="200 300 100 100" />
    <rect x="200" y="300" width="100" height="100" fill="white"/>
             <rect x="200" y="300" width="100" height="100" fill="#883322"/>
    <circle cx="250" cy="350" r="36" stroke="#0000af" stroke-width="12" fill="none" />

 <view id="24" viewBox="200     400         100          100"  />
   <rect x="200" y="400" width="100" height="100" fill="white"/>
   <circle cx="250" cy="450" r="48" stroke="#0000af" stroke-width="4" fill="none" />
       <path
     transform="translate(231 428), scale(0.36)" 
     fill="#0000af"
     d="m 8.31,108.22 c 4.77,-0.44 18.07,-1.58 22.24,-8.01 0.42,-0.65 3.9,-6.42 3.9,-6.45 l 14.36,5.47 c 0.31,1.57 -8.11,13.33 -9.64,14.6 -1.95,1.62 -3.82,2.51 -5.8,3.26 -6.65,2.5 -12.37,4.52 -19.91,5.79 z m 29.7,-58.77 -6.14,22.24 c -1.46,7.19 0.12,13.28 6.89,17.48 3.53,2.19 4.52,2.08 8.56,3.25 l 18.65,4.28 c 1.11,0.25 23.27,18.19 25.35,19.98 l 9.57,-8.62 C 102.28,106.81 78.81,86.1 74.72,84.07 55.3,74.44 54.48,85.45 61.79,57.66 c 3.71,3.62 6.52,7.66 13.56,10.42 8.57,2.19 13.35,-0.83 20.48,-3.14 l 9.2127,-3.81 -4.57,-12.91 -9.2127,3.81 c -0.3,0.1 -1.06,0.38 -2.39,0.84 -3.3,0.8 -6.22,2.9 -8.31,1.89 C 73.63,51.41 69.52,37.27 50.17,35.73 47.26,35.5 41.85,34.77 37.63,34.65 21.94,33.74 16.59,39.62 8,48.44 4.05,52.26 3.99,52.22 0,56.01 l 10.15,10.1 c 4.02,-3.82 4.11,-3.8 8.09,-7.66 3.61,-3.45 6.08,-7.01 9.79,-8.53 2.41,-0.99 5.52,-0.58 9.22,-0.51 0.26,0.02 0.51,0.03 0.76,0.04 z M 56.12,0.73 C 63.92,-1.8 72.3,2.47 74.84,10.28 77.37,18.08 73.1,26.46 65.29,29 57.49,31.53 49.11,27.26 46.57,19.45 44.04,11.64 48.32,3.26 56.12,0.73 Z"
     />




 <view id="30" viewBox="300 0 100 100" />
    <rect x="300" y="0" width="100" height="100" fill="white"/>
    <polygon points="350,0      399,99    300,99" class="triangle" fill="#00ff00"/>

 <view id="31" viewBox="300 100 100 100" />
    <rect x="300" y="100" width="100" height="100" fill="white"/>
    <polygon points="350,100      399,199    300,199" class="triangle" fill="#00af00"/>

 <view id="32" viewBox="300 200 100 100" />
    <rect x="300" y="200" width="100" height="100" fill="white"/>
   <polygon points="350,200      399,299    300,299" class="triangle" fill="#006f00"/>

 <view id="33" viewBox="300     300         100          100"  />
   <rect x="300" y="300" width="100" height="100" fill="white"/>
         <rect x="300" y="300" width="100" height="100" fill="#334455"/>
   <polygon points="350,319     381,386    319,386 " class="triangle"  stroke="#00af00" stroke-width="12" fill="none" />

 <view id="34" viewBox="300     400         100          100"  />
   <rect x="300" y="400" width="100" height="100" fill="white"/>
     <polygon points="350,404      397,498    303,498" class="triangle"  stroke="#00af00" stroke-width="4" fill="none" />
  <path
     transform="translate(331 428), scale(0.36)" 
     fill="#00af00"
     d="m 8.31,108.22 c 4.77,-0.44 18.07,-1.58 22.24,-8.01 0.42,-0.65 3.9,-6.42 3.9,-6.45 l 14.36,5.47 c 0.31,1.57 -8.11,13.33 -9.64,14.6 -1.95,1.62 -3.82,2.51 -5.8,3.26 -6.65,2.5 -12.37,4.52 -19.91,5.79 z m 29.7,-58.77 -6.14,22.24 c -1.46,7.19 0.12,13.28 6.89,17.48 3.53,2.19 4.52,2.08 8.56,3.25 l 18.65,4.28 c 1.11,0.25 23.27,18.19 25.35,19.98 l 9.57,-8.62 C 102.28,106.81 78.81,86.1 74.72,84.07 55.3,74.44 54.48,85.45 61.79,57.66 c 3.71,3.62 6.52,7.66 13.56,10.42 8.57,2.19 13.35,-0.83 20.48,-3.14 l 9.2127,-3.81 -4.57,-12.91 -9.2127,3.81 c -0.3,0.1 -1.06,0.38 -2.39,0.84 -3.3,0.8 -6.22,2.9 -8.31,1.89 C 73.63,51.41 69.52,37.27 50.17,35.73 47.26,35.5 41.85,34.77 37.63,34.65 21.94,33.74 16.59,39.62 8,48.44 4.05,52.26 3.99,52.22 0,56.01 l 10.15,10.1 c 4.02,-3.82 4.11,-3.8 8.09,-7.66 3.61,-3.45 6.08,-7.01 9.79,-8.53 2.41,-0.99 5.52,-0.58 9.22,-0.51 0.26,0.02 0.51,0.03 0.76,0.04 z M 56.12,0.73 C 63.92,-1.8 72.3,2.47 74.84,10.28 77.37,18.08 73.1,26.46 65.29,29 57.49,31.53 49.11,27.26 46.57,19.45 44.04,11.64 48.32,3.26 56.12,0.73 Z"
     />









 <view id="40" viewBox="400 0 100 100" />
    <rect x="400" y="0" width="100" height="100" fill="#00ffff" />

 <view id="41" viewBox="400 100 100 100" />
    <rect x="400" y="100" width="100" height="100" fill="#00dfdf"/>

 <view id="42" viewBox="400 200 100 100" />
    <rect x="400" y="200" width="100" height="100" fill="#00bfbf"/>

 <view id="43" viewBox="400     300         100          100"  />
        <rect x="402" y="302" width="96" height="96" fill="none" stroke="#00dfdf" stroke-width="4"/>
   
 <view id="44" viewBox="400     400         100          100"  />
    <rect x="402" y="402" width="96" height="96" fill="none" stroke="#00dfdf" stroke-width="4"/>
  <path
     transform="translate(431 428), scale(0.36)" 
     fill="#00dfdf"
     d="m 8.31,108.22 c 4.77,-0.44 18.07,-1.58 22.24,-8.01 0.42,-0.65 3.9,-6.42 3.9,-6.45 l 14.36,5.47 c 0.31,1.57 -8.11,13.33 -9.64,14.6 -1.95,1.62 -3.82,2.51 -5.8,3.26 -6.65,2.5 -12.37,4.52 -19.91,5.79 z m 29.7,-58.77 -6.14,22.24 c -1.46,7.19 0.12,13.28 6.89,17.48 3.53,2.19 4.52,2.08 8.56,3.25 l 18.65,4.28 c 1.11,0.25 23.27,18.19 25.35,19.98 l 9.57,-8.62 C 102.28,106.81 78.81,86.1 74.72,84.07 55.3,74.44 54.48,85.45 61.79,57.66 c 3.71,3.62 6.52,7.66 13.56,10.42 8.57,2.19 13.35,-0.83 20.48,-3.14 l 9.2127,-3.81 -4.57,-12.91 -9.2127,3.81 c -0.3,0.1 -1.06,0.38 -2.39,0.84 -3.3,0.8 -6.22,2.9 -8.31,1.89 C 73.63,51.41 69.52,37.27 50.17,35.73 47.26,35.5 41.85,34.77 37.63,34.65 21.94,33.74 16.59,39.62 8,48.44 4.05,52.26 3.99,52.22 0,56.01 l 10.15,10.1 c 4.02,-3.82 4.11,-3.8 8.09,-7.66 3.61,-3.45 6.08,-7.01 9.79,-8.53 2.41,-0.99 5.52,-0.58 9.22,-0.51 0.26,0.02 0.51,0.03 0.76,0.04 z M 56.12,0.73 C 63.92,-1.8 72.3,2.47 74.84,10.28 77.37,18.08 73.1,26.46 65.29,29 57.49,31.53 49.11,27.26 46.57,19.45 44.04,11.64 48.32,3.26 56.12,0.73 Z"
     />





 <view id="50" viewBox="500 0 100 100" />
    <rect x="500" y="0" width="100" height="100" fill="white"/>
    <circle cx="550" cy="50" r="50" fill="#ffff00" />

 <view id="51" viewBox="500 100 100 100" />
    <rect x="500" y="100" width="100" height="100" fill="white"/>
    <circle cx="550" cy="150" r="50" fill="#dfdf00" />

 <view id="52" viewBox="500 200 100 100" />
    <rect x="500" y="200" width="100" height="100" fill="white"/>
    <circle cx="550" cy="250" r="50" fill="#bfbf00" />


 <view id="53" viewBox="500 300 100 100" />
    <rect x="500" y="300" width="100" height="100" fill="white"/>
    <circle cx="550" cy="350" r="48" stroke="#dfdf00" stroke-width="4" fill="none" />

 <view id="54" viewBox="500     400         100          100"  />
   <rect x="500" y="500" width="100" height="100" fill="white"/>
   <circle cx="550" cy="450" r="48" stroke="#dfdf00" stroke-width="4" fill="none" />
  <path
     transform="translate(531 428), scale(0.36)" 
     fill="#dfdf00"
     d="m 8.31,108.22 c 4.77,-0.44 18.07,-1.58 22.24,-8.01 0.42,-0.65 3.9,-6.42 3.9,-6.45 l 14.36,5.47 c 0.31,1.57 -8.11,13.33 -9.64,14.6 -1.95,1.62 -3.82,2.51 -5.8,3.26 -6.65,2.5 -12.37,4.52 -19.91,5.79 z m 29.7,-58.77 -6.14,22.24 c -1.46,7.19 0.12,13.28 6.89,17.48 3.53,2.19 4.52,2.08 8.56,3.25 l 18.65,4.28 c 1.11,0.25 23.27,18.19 25.35,19.98 l 9.57,-8.62 C 102.28,106.81 78.81,86.1 74.72,84.07 55.3,74.44 54.48,85.45 61.79,57.66 c 3.71,3.62 6.52,7.66 13.56,10.42 8.57,2.19 13.35,-0.83 20.48,-3.14 l 9.2127,-3.81 -4.57,-12.91 -9.2127,3.81 c -0.3,0.1 -1.06,0.38 -2.39,0.84 -3.3,0.8 -6.22,2.9 -8.31,1.89 C 73.63,51.41 69.52,37.27 50.17,35.73 47.26,35.5 41.85,34.77 37.63,34.65 21.94,33.74 16.59,39.62 8,48.44 4.05,52.26 3.99,52.22 0,56.01 l 10.15,10.1 c 4.02,-3.82 4.11,-3.8 8.09,-7.66 3.61,-3.45 6.08,-7.01 9.79,-8.53 2.41,-0.99 5.52,-0.58 9.22,-0.51 0.26,0.02 0.51,0.03 0.76,0.04 z M 56.12,0.73 C 63.92,-1.8 72.3,2.47 74.84,10.28 77.37,18.08 73.1,26.46 65.29,29 57.49,31.53 49.11,27.26 46.57,19.45 44.04,11.64 48.32,3.26 56.12,0.73 Z"
     />















 <view id="60" viewBox="600 0 100 100" />
    <rect x="600" y="0" width="100" height="100" fill="white"/>
    <polygon points="650,0      699,99    600,99" class="triangle" fill="#ff00ff"/>

 <view id="61" viewBox="600 100 100 100" />
    <rect x="600" y="100" width="100" height="100" fill="white"/>
    <polygon points="650,100      699,199    600,199" class="triangle" fill="#af00af"/>

 <view id="62" viewBox="600 200 100 100" />
    <rect x="600" y="200" width="100" height="100" fill="white"/>
   <polygon points="650,200      699,299    600,299" class="triangle" fill="#6f006f"/>

 <view id="63" viewBox="600     300         100          100"  />
   <rect x="600" y="300" width="100" height="100" fill="white"/>
   <polygon points="650,304      697,398    603,398" class="triangle"  stroke="#af00af" stroke-width="4" fill="none" />

 <view id="64" viewBox="600     400         100          100"  />
   <rect x="600" y="400" width="100" height="100" fill="white"/>
     <polygon points="650,404      697,498    603,498" class="triangle"  stroke="#af00af" stroke-width="4" fill="none" />
  <path
     transform="translate(631 428), scale(0.36)" 
     fill="#af00af"
     d="m 8.31,108.22 c 4.77,-0.44 18.07,-1.58 22.24,-8.01 0.42,-0.65 3.9,-6.42 3.9,-6.45 l 14.36,5.47 c 0.31,1.57 -8.11,13.33 -9.64,14.6 -1.95,1.62 -3.82,2.51 -5.8,3.26 -6.65,2.5 -12.37,4.52 -19.91,5.79 z m 29.7,-58.77 -6.14,22.24 c -1.46,7.19 0.12,13.28 6.89,17.48 3.53,2.19 4.52,2.08 8.56,3.25 l 18.65,4.28 c 1.11,0.25 23.27,18.19 25.35,19.98 l 9.57,-8.62 C 102.28,106.81 78.81,86.1 74.72,84.07 55.3,74.44 54.48,85.45 61.79,57.66 c 3.71,3.62 6.52,7.66 13.56,10.42 8.57,2.19 13.35,-0.83 20.48,-3.14 l 9.2127,-3.81 -4.57,-12.91 -9.2127,3.81 c -0.3,0.1 -1.06,0.38 -2.39,0.84 -3.3,0.8 -6.22,2.9 -8.31,1.89 C 73.63,51.41 69.52,37.27 50.17,35.73 47.26,35.5 41.85,34.77 37.63,34.65 21.94,33.74 16.59,39.62 8,48.44 4.05,52.26 3.99,52.22 0,56.01 l 10.15,10.1 c 4.02,-3.82 4.11,-3.8 8.09,-7.66 3.61,-3.45 6.08,-7.01 9.79,-8.53 2.41,-0.99 5.52,-0.58 9.22,-0.51 0.26,0.02 0.51,0.03 0.76,0.04 z M 56.12,0.73 C 63.92,-1.8 72.3,2.47 74.84,10.28 77.37,18.08 73.1,26.46 65.29,29 57.49,31.53 49.11,27.26 46.57,19.45 44.04,11.64 48.32,3.26 56.12,0.73 Z"
     />





















 <view id="70" viewBox="700 0 100 100" />
    <rect x="700" y="0" width="100" height="100" fill="#00afff" />

 <view id="71" viewBox="700 100 100 100" />
    <rect x="700" y="100" width="100" height="100" fill="#008fdf"/>

 <view id="72" viewBox="700 200 100 100" />
    <rect x="700" y="200" width="100" height="100" fill="#006faf"/>

 <view id="73" viewBox="700     300         100          100"  />
        <rect x="702" y="302" width="96" height="96" fill="none" stroke="#008fdf" stroke-width="4"/>

 <view id="74" viewBox="700     400         100          100"  />
    <rect x="702" y="402" width="96" height="96" fill="none" stroke="#008fdf" stroke-width="4"/>
 <path
     transform="translate(731 428), scale(0.36)" 
     fill="#008fdf"
     d="m 8.31,108.22 c 4.77,-0.44 18.07,-1.58 22.24,-8.01 0.42,-0.65 3.9,-6.42 3.9,-6.45 l 14.36,5.47 c 0.31,1.57 -8.11,13.33 -9.64,14.6 -1.95,1.62 -3.82,2.51 -5.8,3.26 -6.65,2.5 -12.37,4.52 -19.91,5.79 z m 29.7,-58.77 -6.14,22.24 c -1.46,7.19 0.12,13.28 6.89,17.48 3.53,2.19 4.52,2.08 8.56,3.25 l 18.65,4.28 c 1.11,0.25 23.27,18.19 25.35,19.98 l 9.57,-8.62 C 102.28,106.81 78.81,86.1 74.72,84.07 55.3,74.44 54.48,85.45 61.79,57.66 c 3.71,3.62 6.52,7.66 13.56,10.42 8.57,2.19 13.35,-0.83 20.48,-3.14 l 9.2127,-3.81 -4.57,-12.91 -9.2127,3.81 c -0.3,0.1 -1.06,0.38 -2.39,0.84 -3.3,0.8 -6.22,2.9 -8.31,1.89 C 73.63,51.41 69.52,37.27 50.17,35.73 47.26,35.5 41.85,34.77 37.63,34.65 21.94,33.74 16.59,39.62 8,48.44 4.05,52.26 3.99,52.22 0,56.01 l 10.15,10.1 c 4.02,-3.82 4.11,-3.8 8.09,-7.66 3.61,-3.45 6.08,-7.01 9.79,-8.53 2.41,-0.99 5.52,-0.58 9.22,-0.51 0.26,0.02 0.51,0.03 0.76,0.04 z M 56.12,0.73 C 63.92,-1.8 72.3,2.47 74.84,10.28 77.37,18.08 73.1,26.46 65.29,29 57.49,31.53 49.11,27.26 46.57,19.45 44.04,11.64 48.32,3.26 56.12,0.73 Z"
     />





 <view id="80" viewBox="800 0 100 100" />
    <rect x="800" y="0" width="100" height="100" fill="white"/>
    <circle cx="850" cy="50" r="50" fill="#af00ff" />

 <view id="81" viewBox="800 100 100 100" />
    <rect x="800" y="100" width="100" height="100" fill="white"/>
    <circle cx="850" cy="150" r="50" fill="#8f00df" />

 <view id="82" viewBox="800 200 100 100" />
    <rect x="800" y="200" width="100" height="100" fill="white"/>
    <circle cx="850" cy="250" r="50" fill="#6f00af" />


 <view id="83" viewBox="800 300 100 100" />
    <rect x="800" y="300" width="100" height="100" fill="white"/>
    <circle cx="850" cy="350" r="48" stroke="#8f00df" stroke-width="4" fill="none" />

 <view id="84" viewBox="800     400         100          100"  />
   <rect x="800" y="400" width="100" height="100" fill="white"/>
   <circle cx="850" cy="450" r="48" stroke="#8f00df" stroke-width="4" fill="none" />
 <path
     transform="translate(831 428), scale(0.36)" 
     fill="#8f00df"
     d="m 8.31,108.22 c 4.77,-0.44 18.07,-1.58 22.24,-8.01 0.42,-0.65 3.9,-6.42 3.9,-6.45 l 14.36,5.47 c 0.31,1.57 -8.11,13.33 -9.64,14.6 -1.95,1.62 -3.82,2.51 -5.8,3.26 -6.65,2.5 -12.37,4.52 -19.91,5.79 z m 29.7,-58.77 -6.14,22.24 c -1.46,7.19 0.12,13.28 6.89,17.48 3.53,2.19 4.52,2.08 8.56,3.25 l 18.65,4.28 c 1.11,0.25 23.27,18.19 25.35,19.98 l 9.57,-8.62 C 102.28,106.81 78.81,86.1 74.72,84.07 55.3,74.44 54.48,85.45 61.79,57.66 c 3.71,3.62 6.52,7.66 13.56,10.42 8.57,2.19 13.35,-0.83 20.48,-3.14 l 9.2127,-3.81 -4.57,-12.91 -9.2127,3.81 c -0.3,0.1 -1.06,0.38 -2.39,0.84 -3.3,0.8 -6.22,2.9 -8.31,1.89 C 73.63,51.41 69.52,37.27 50.17,35.73 47.26,35.5 41.85,34.77 37.63,34.65 21.94,33.74 16.59,39.62 8,48.44 4.05,52.26 3.99,52.22 0,56.01 l 10.15,10.1 c 4.02,-3.82 4.11,-3.8 8.09,-7.66 3.61,-3.45 6.08,-7.01 9.79,-8.53 2.41,-0.99 5.52,-0.58 9.22,-0.51 0.26,0.02 0.51,0.03 0.76,0.04 z M 56.12,0.73 C 63.92,-1.8 72.3,2.47 74.84,10.28 77.37,18.08 73.1,26.46 65.29,29 57.49,31.53 49.11,27.26 46.57,19.45 44.04,11.64 48.32,3.26 56.12,0.73 Z"
     />



 <view id="90" viewBox="900 0 100 100" />
    <rect x="900" y="0" width="100" height="100" fill="white"/>
    <polygon points="950,0      999,99    900,99" class="triangle" fill="#ffaf00"/>

 <view id="91" viewBox="900 100 100 100" />
    <rect x="900" y="100" width="100" height="100" fill="white"/>
    <polygon points="950,100      999,199    900,199" class="triangle" fill="#df8f00"/>

 <view id="92" viewBox="900 200 100 100" />
    <rect x="900" y="200" width="100" height="100" fill="white"/>
   <polygon points="950,200      999,299    900,299" class="triangle" fill="#af6f00"/>

 <view id="93" viewBox="900     300         100          100"  />
   <rect x="900" y="300" width="100" height="100" fill="white"/>
   <polygon points="950,304      997,398    903,398" class="triangle"  stroke="#df8f00" stroke-width="4" fill="none" />

 <view id="94" viewBox="900     400         100          100"  />
   <rect x="900" y="400" width="100" height="100" fill="white"/>
     <polygon points="950,404      997,498    903,498" class="triangle"  stroke="#df8f00" stroke-width="4" fill="none" />
    <path
     transform="translate(931 428), scale(0.36)" 
     fill="#df8f00"
     d="m 8.31,108.22 c 4.77,-0.44 18.07,-1.58 22.24,-8.01 0.42,-0.65 3.9,-6.42 3.9,-6.45 l 14.36,5.47 c 0.31,1.57 -8.11,13.33 -9.64,14.6 -1.95,1.62 -3.82,2.51 -5.8,3.26 -6.65,2.5 -12.37,4.52 -19.91,5.79 z m 29.7,-58.77 -6.14,22.24 c -1.46,7.19 0.12,13.28 6.89,17.48 3.53,2.19 4.52,2.08 8.56,3.25 l 18.65,4.28 c 1.11,0.25 23.27,18.19 25.35,19.98 l 9.57,-8.62 C 102.28,106.81 78.81,86.1 74.72,84.07 55.3,74.44 54.48,85.45 61.79,57.66 c 3.71,3.62 6.52,7.66 13.56,10.42 8.57,2.19 13.35,-0.83 20.48,-3.14 l 9.2127,-3.81 -4.57,-12.91 -9.2127,3.81 c -0.3,0.1 -1.06,0.38 -2.39,0.84 -3.3,0.8 -6.22,2.9 -8.31,1.89 C 73.63,51.41 69.52,37.27 50.17,35.73 47.26,35.5 41.85,34.77 37.63,34.65 21.94,33.74 16.59,39.62 8,48.44 4.05,52.26 3.99,52.22 0,56.01 l 10.15,10.1 c 4.02,-3.82 4.11,-3.8 8.09,-7.66 3.61,-3.45 6.08,-7.01 9.79,-8.53 2.41,-0.99 5.52,-0.58 9.22,-0.51 0.26,0.02 0.51,0.03 0.76,0.04 z M 56.12,0.73 C 63.92,-1.8 72.3,2.47 74.84,10.28 77.37,18.08 73.1,26.46 65.29,29 57.49,31.53 49.11,27.26 46.57,19.45 44.04,11.64 48.32,3.26 56.12,0.73 Z"
     />








  
</svg>