<svg viewBox="0 0 2000 1200" width="2000" height="1200" xmlns="http://www.w3.org/2000/svg">


  <!-- EMPTY      src="/images/colored-icons.svg#0" class="no-jump"                  -->
  <view id="0" viewBox="0 0 100 100" />
  <rect x="0" y="0" width="100" height="100" fill="none" />

  <view id="1" viewBox="0 100 100 100" />
  <rect x="0" y="100" width="100" height="100" fill="black" />

  <!-- BLACK JUMP -->
  <view id="4" viewBox="0     400         100          100" />
  <path transform="translate(31 431)" fill="#000000"
    d="M 2.9916 38.9592 C 4.7088 38.8008 9.4968 38.3904 10.998 36.0756 C 11.1492 35.8416 12.402 33.7644 12.402 33.7536 L 17.5716 35.7228 C 17.6832 36.288 14.652 40.5216 14.1012 40.9788 C 13.3992 41.562 12.726 41.8824 12.0132 42.1524 C 9.6192 43.0524 7.56 43.7796 4.8456 44.2368 Z M 13.6836 17.802 L 11.4732 25.8084 C 10.9476 28.3968 11.5164 30.5892 13.9536 32.1012 C 15.2244 32.8896 15.5808 32.85 17.0352 33.2712 L 23.7492 34.812 C 24.1488 34.902 32.1264 41.3604 32.8752 42.0048 L 36.3204 38.9016 C 36.8208 38.4516 28.3716 30.996 26.8992 30.2652 C 19.908 26.7984 19.6128 30.762 22.2444 20.7576 C 23.58 22.0608 24.5916 23.5152 27.126 24.5088 C 30.2112 25.2972 31.932 24.21 34.4988 23.3784 L 37.8154 22.0068 L 36.1702 17.3592 L 32.8536 18.7308 C 32.7456 18.7668 32.472 18.8676 31.9932 19.0332 C 30.8052 19.3212 29.754 20.0772 29.0016 19.7136 C 26.5068 18.5076 25.0272 13.4172 18.0612 12.8628 C 17.0136 12.78 15.066 12.5172 13.5468 12.474 C 7.8984 12.1464 5.9724 14.2632 2.88 17.4384 C 1.458 18.8136 1.4364 18.7992 0 20.1636 L 3.654 23.7996 C 5.1012 22.4244 5.1336 22.4316 6.5664 21.042 C 7.866 19.8 8.7552 18.5184 10.0908 17.9712 C 10.9584 17.6148 12.078 17.7624 13.41 17.7876 C 13.5036 17.7948 13.5936 17.7984 13.6836 17.802 Z M 20.2032 0.2628 C 23.0112 -0.648 26.028 0.8892 26.9424 3.7008 C 27.8532 6.5088 26.316 9.5256 23.5044 10.44 C 20.6964 11.3508 17.6796 9.8136 16.7652 7.002 C 15.8544 4.1904 17.3952 1.1736 20.2032 0.2628 Z"
  />


  <!-- RED x100    0 => "223, 0 ,0" af0000 -->

  <view id="10" viewBox="100 0 100 100" />
  <rect x="100" y="0" width="100" height="100" fill="#ff0000" />

  <view id="11" viewBox="100 100 100 100" />
  <rect x="100" y="100" width="100" height="100" fill="#af0000  " />

  <view id="12" viewBox="100 200 100 100" />
  <rect x="100" y="200" width="100" height="100" fill="#6f0000" />

  <view id="13" viewBox="100     300         100          100" />
  <rect x="100" y="300" width="100" height="100" fill="none" />
  <rect x="131" y="330" width="50" height="51" fill="none" stroke="#af0000" stroke-width="16" />

  <view id="14" viewBox="100     400         100          100" />
  <rect x="100" y="400" width="100" height="100" fill="none" />
  <rect x="116" y="416" width="68" height="68" fill="none" stroke="#af0000" stroke-width="4" />
  <path transform="translate(131 431)" fill="#af0000"
    d="M 2.9916 38.9592 C 4.7088 38.8008 9.4968 38.3904 10.998 36.0756 C 11.1492 35.8416 12.402 33.7644 12.402 33.7536 L 17.5716 35.7228 C 17.6832 36.288 14.652 40.5216 14.1012 40.9788 C 13.3992 41.562 12.726 41.8824 12.0132 42.1524 C 9.6192 43.0524 7.56 43.7796 4.8456 44.2368 Z M 13.6836 17.802 L 11.4732 25.8084 C 10.9476 28.3968 11.5164 30.5892 13.9536 32.1012 C 15.2244 32.8896 15.5808 32.85 17.0352 33.2712 L 23.7492 34.812 C 24.1488 34.902 32.1264 41.3604 32.8752 42.0048 L 36.3204 38.9016 C 36.8208 38.4516 28.3716 30.996 26.8992 30.2652 C 19.908 26.7984 19.6128 30.762 22.2444 20.7576 C 23.58 22.0608 24.5916 23.5152 27.126 24.5088 C 30.2112 25.2972 31.932 24.21 34.4988 23.3784 L 37.8154 22.0068 L 36.1702 17.3592 L 32.8536 18.7308 C 32.7456 18.7668 32.472 18.8676 31.9932 19.0332 C 30.8052 19.3212 29.754 20.0772 29.0016 19.7136 C 26.5068 18.5076 25.0272 13.4172 18.0612 12.8628 C 17.0136 12.78 15.066 12.5172 13.5468 12.474 C 7.8984 12.1464 5.9724 14.2632 2.88 17.4384 C 1.458 18.8136 1.4364 18.7992 0 20.1636 L 3.654 23.7996 C 5.1012 22.4244 5.1336 22.4316 6.5664 21.042 C 7.866 19.8 8.7552 18.5184 10.0908 17.9712 C 10.9584 17.6148 12.078 17.7624 13.41 17.7876 C 13.5036 17.7948 13.5936 17.7984 13.6836 17.802 Z M 20.2032 0.2628 C 23.0112 -0.648 26.028 0.8892 26.9424 3.7008 C 27.8532 6.5088 26.316 9.5256 23.5044 10.44 C 20.6964 11.3508 17.6796 9.8136 16.7652 7.002 C 15.8544 4.1904 17.3952 1.1736 20.2032 0.2628 Z"
  />

  <view id="15" viewBox="100 500 100 200" />
  <rect x="100" y="500" width="100" height="200" fill="none" />
  <rect x="111" y="505" width="90" height="190" fill="#ff0000" />

  <view id="16" viewBox="100 700 100 200" />
  <rect x="100" y="700" width="100" height="200" fill="none" />
  <rect x="111" y="705" width="90" height="190" fill="#af0000" />


  <view id="17" viewBox="100 900 200 100" />
  <rect x="100" y="900" width="200" height="100" fill="none" />
  <rect x="105" y="911" width="190" height="90" fill="#ff0000" />

  <view id="18" viewBox="100 1000 200 100" />
  <rect x="100" y="1000" width="200" height="100" fill="none" />
  <rect x="105" y="1011" width="190" height="90" fill="#af0000" />

  <!-- BLUE x300    1 => "0, 0, 223" 0000af -->

  <view id="20" viewBox="300 0 100 100" />
  <rect x="300" y="0" width="100" height="100" fill="none" />
  <circle cx="356" cy="56" r="36" fill="#0000ff" />

  <view id="21" viewBox="300 100 100 100" />
  <rect x="300" y="100" width="100" height="100" fill="none" />
  <circle cx="356" cy="156" r="36" fill="#0000af" />

  <view id="22" viewBox="300 200 100 100" />
  <rect x="300" y="300" width="100" height="100" fill="none" />
  <circle cx="356" cy="256" r="36" fill="#00006f" />

  <view id="23" viewBox="300 300 100 100" />
  <rect x="300" y="300" width="100" height="100" fill="none" />
  <circle cx="356" cy="356" r="25" stroke="#0000af" stroke-width="16" fill="none" />

  <view id="24" viewBox="300     400         100          100" />
  <rect x="300" y="400" width="100" height="100" fill="none" />
  <circle cx="350" cy="454" r="35" stroke="#0000af" stroke-width="4" fill="none" />
  <path transform="translate(331 431)" fill="#0000af"
    d="M 2.9916 38.9592 C 4.7088 38.8008 9.4968 38.3904 10.998 36.0756 C 11.1492 35.8416 12.402 33.7644 12.402 33.7536 L 17.5716 35.7228 C 17.6832 36.288 14.652 40.5216 14.1012 40.9788 C 13.3992 41.562 12.726 41.8824 12.0132 42.1524 C 9.6192 43.0524 7.56 43.7796 4.8456 44.2368 Z M 13.6836 17.802 L 11.4732 25.8084 C 10.9476 28.3968 11.5164 30.5892 13.9536 32.1012 C 15.2244 32.8896 15.5808 32.85 17.0352 33.2712 L 23.7492 34.812 C 24.1488 34.902 32.1264 41.3604 32.8752 42.0048 L 36.3204 38.9016 C 36.8208 38.4516 28.3716 30.996 26.8992 30.2652 C 19.908 26.7984 19.6128 30.762 22.2444 20.7576 C 23.58 22.0608 24.5916 23.5152 27.126 24.5088 C 30.2112 25.2972 31.932 24.21 34.4988 23.3784 L 37.8154 22.0068 L 36.1702 17.3592 L 32.8536 18.7308 C 32.7456 18.7668 32.472 18.8676 31.9932 19.0332 C 30.8052 19.3212 29.754 20.0772 29.0016 19.7136 C 26.5068 18.5076 25.0272 13.4172 18.0612 12.8628 C 17.0136 12.78 15.066 12.5172 13.5468 12.474 C 7.8984 12.1464 5.9724 14.2632 2.88 17.4384 C 1.458 18.8136 1.4364 18.7992 0 20.1636 L 3.654 23.7996 C 5.1012 22.4244 5.1336 22.4316 6.5664 21.042 C 7.866 19.8 8.7552 18.5184 10.0908 17.9712 C 10.9584 17.6148 12.078 17.7624 13.41 17.7876 C 13.5036 17.7948 13.5936 17.7984 13.6836 17.802 Z M 20.2032 0.2628 C 23.0112 -0.648 26.028 0.8892 26.9424 3.7008 C 27.8532 6.5088 26.316 9.5256 23.5044 10.44 C 20.6964 11.3508 17.6796 9.8136 16.7652 7.002 C 15.8544 4.1904 17.3952 1.1736 20.2032 0.2628 Z"
  />


  <view id="25" viewBox="300 500 100 200" />
  <rect x="300" y="500" width="100" height="200" fill="none" />
  <rect x="320" y="541" width="72" height="120" fill="#0000ff" />
  <circle cx="356" cy="541" r="36" fill="#0000ff" />
  <circle cx="356" cy="659" r="36" fill="#0000ff" />

  <view id="26" viewBox="300 700 100 200" />
  <rect x="300" y="700" width="100" height="200" fill="none" />
  <rect x="320" y="741" width="72" height="120" fill="#0000af" />
  <circle cx="356" cy="741" r="36" fill="#0000af" />
  <circle cx="356" cy="859" r="36" fill="#0000af" />

  <view id="27" viewBox="300 900 200 100" />
  <rect x="300" y="900" width="200" height="100" fill="yellow" />
  <rect x="340" y="920" width="120" height="72" fill="#0000ff" />
  <circle cx="342" cy="956" r="36" fill="#0000ff" />
  <circle cx="460" cy="956" r="36" fill="#0000ff" />

  <view id="28" viewBox="300 1000 200 100" />
  <rect x="300" y="1000" width="200" height="100" fill="none" />
  <rect x="340" y="1020" width="120" height="72" fill="#0000af" />
  <circle cx="342" cy="1056" r="36" fill="#0000af" />
  <circle cx="460" cy="1056" r="36" fill="#0000af" />


  <!-- GREEN x500    2 => "0, 223 ,0" 00af00 -->

  <view id="30" viewBox="500 0 100 100" />
  <rect x="500" y="0" width="100" height="100" fill="none" />
  <polygon points="556,10      599,99    512,99" fill="#00ff00" />

  <view id="31" viewBox="500 100 100 100" />
  <rect x="500" y="100" width="100" height="100" fill="none" />
  <polygon points="556,110      599,199    512,199" fill="#00af00" />

  <view id="32" viewBox="500 200 100 100" />
  <rect x="500" y="200" width="100" height="100" fill="none" />
  <polygon points="556,210      599,299    512,299" fill="#006f00" />

  <view id="33" viewBox="500     500         100          100" />
  <rect x="500" y="500" width="100" height="100" fill="none" />
  <polygon points="555,323     584,386    526,386 " stroke="#00af00" stroke-width="16" fill="none" />

  <view id="34" viewBox="500     400         100          100" />
  <rect x="500" y="400" width="100" height="100" fill="none" />
  <polygon points="550,404      588,480    512,480" stroke="#00af00" stroke-width="4" fill="none" />
  <path transform="translate(531 431)" fill="#00af00"
    d="M 2.9916 38.9592 C 4.7088 38.8008 9.4968 38.3904 10.998 36.0756 C 11.1492 35.8416 12.402 33.7644 12.402 33.7536 L 17.5716 35.7228 C 17.6832 36.288 14.652 40.5216 14.1012 40.9788 C 13.3992 41.562 12.726 41.8824 12.0132 42.1524 C 9.6192 43.0524 7.56 43.7796 4.8456 44.2368 Z M 13.6836 17.802 L 11.4732 25.8084 C 10.9476 28.3968 11.5164 30.5892 13.9536 32.1012 C 15.2244 32.8896 15.5808 32.85 17.0352 33.2712 L 23.7492 34.812 C 24.1488 34.902 32.1264 41.3604 32.8752 42.0048 L 36.3204 38.9016 C 36.8208 38.4516 28.3716 30.996 26.8992 30.2652 C 19.908 26.7984 19.6128 30.762 22.2444 20.7576 C 23.58 22.0608 24.5916 23.5152 27.126 24.5088 C 30.2112 25.2972 31.932 24.21 34.4988 23.3784 L 37.8154 22.0068 L 36.1702 17.3592 L 32.8536 18.7308 C 32.7456 18.7668 32.472 18.8676 31.9932 19.0332 C 30.8052 19.3212 29.754 20.0772 29.0016 19.7136 C 26.5068 18.5076 25.0272 13.4172 18.0612 12.8628 C 17.0136 12.78 15.066 12.5172 13.5468 12.474 C 7.8984 12.1464 5.9724 14.2632 2.88 17.4384 C 1.458 18.8136 1.4364 18.7992 0 20.1636 L 3.654 23.7996 C 5.1012 22.4244 5.1336 22.4316 6.5664 21.042 C 7.866 19.8 8.7552 18.5184 10.0908 17.9712 C 10.9584 17.6148 12.078 17.7624 13.41 17.7876 C 13.5036 17.7948 13.5936 17.7984 13.6836 17.802 Z M 20.2032 0.2628 C 23.0112 -0.648 26.028 0.8892 26.9424 3.7008 C 27.8532 6.5088 26.316 9.5256 23.5044 10.44 C 20.6964 11.3508 17.6796 9.8136 16.7652 7.002 C 15.8544 4.1904 17.3952 1.1736 20.2032 0.2628 Z"
  />

  <view id="35" viewBox="500 500 100 200" />
  <rect x="500" y="500" width="100" height="200" fill="none" />
  <polygon points="556,505      599,600    513,600" fill="#00ff00" />
  <polygon points="556,695      599,600    513,600" fill="#00ff00" />
  <polygon points="556,660      599,550    512,550" fill="#00ff00" />
  <polygon points="556,560      599,650    512,650" fill="#00ff00" />

  <view id="36" viewBox="500 700 100 200" />
  <rect x="500" y="700" width="100" height="200" fill="none" />
  <polygon points="556,705      599,800    513,800" fill="#00af00" />
  <polygon points="556,895      599,800    513,800" fill="#00af00" />
  <polygon points="556,860      599,750    512,750" fill="#00af00" />
  <polygon points="556,760      599,850    512,850" fill="#00af00" />


  <view id="37" viewBox="500 900 200 100" />
  <rect x="500" y="900" width="200" height="100" fill="pink" />

  <polygon
    points="600,949     600,863      695,906"
    transform="translate(0 43)"
    fill="#00ff00"
  />
  <polygon
    points="600,949       600,863         505,906"
    transform="translate(0 43)"
    fill="#00ff00"
  />
  <polygon
    points="650,949         650,862         540,906"
    transform="translate(0 43)"
    fill="#00ff00"
  />
  <polygon
    points="550,949         550,862         640,906"
    transform="translate(0 43)"
    fill="#00ff00"
  />


  <!-- YELLOW x700    3 => "223, 223 ,0" dfdf00 -->

  <view id="40" viewBox="700 0 100 100" />
  <rect x="700" y="0" width="100" height="100" fill="#ffff00" />

  <view id="41" viewBox="700 100 100 100" />
  <rect x="700" y="100" width="100" height="100" fill="#dfdf00" />

  <view id="42" viewBox="700 200 100 100" />
  <rect x="700" y="200" width="100" height="100" fill="#bfbf00" />

  <view id="43" viewBox="700     300         100          100" />
  <rect x="700" y="300" width="100" height="100" fill="none" />
  <rect x="731" y="330" width="50" height="51" fill="none" stroke="#dfdf00" stroke-width="16" />

  <view id="44" viewBox="700     700         100          100" />
  <rect x="700" y="700" width="100" height="100" fill="none" />
  <rect x="716" y="416" width="68" height="68" fill="none" stroke="#dfdf00" stroke-width="4" />
  <path transform="translate(731 431)" fill="#dfdf00"
    d="M 2.9916 38.9592 C 4.7088 38.8008 9.4968 38.3904 10.998 36.0756 C 11.1492 35.8416 12.402 33.7644 12.402 33.7536 L 17.5716 35.7228 C 17.6832 36.288 14.652 40.5216 14.1012 40.9788 C 13.3992 41.562 12.726 41.8824 12.0132 42.1524 C 9.6192 43.0524 7.56 43.7796 4.8456 44.2368 Z M 13.6836 17.802 L 11.4732 25.8084 C 10.9476 28.3968 11.5164 30.5892 13.9536 32.1012 C 15.2244 32.8896 15.5808 32.85 17.0352 33.2712 L 23.7492 34.812 C 24.1488 34.902 32.1264 41.3604 32.8752 42.0048 L 36.3204 38.9016 C 36.8208 38.4516 28.3716 30.996 26.8992 30.2652 C 19.908 26.7984 19.6128 30.762 22.2444 20.7576 C 23.58 22.0608 24.5916 23.5152 27.126 24.5088 C 30.2112 25.2972 31.932 24.21 34.4988 23.3784 L 37.8154 22.0068 L 36.1702 17.3592 L 32.8536 18.7308 C 32.7456 18.7668 32.472 18.8676 31.9932 19.0332 C 30.8052 19.3212 29.754 20.0772 29.0016 19.7136 C 26.5068 18.5076 25.0272 13.4172 18.0612 12.8628 C 17.0136 12.78 15.066 12.5172 13.5468 12.474 C 7.8984 12.1464 5.9724 14.2632 2.88 17.4384 C 1.458 18.8136 1.4364 18.7992 0 20.1636 L 3.654 23.7996 C 5.1012 22.4244 5.1336 22.4316 6.5664 21.042 C 7.866 19.8 8.7552 18.5184 10.0908 17.9712 C 10.9584 17.6148 12.078 17.7624 13.41 17.7876 C 13.5036 17.7948 13.5936 17.7984 13.6836 17.802 Z M 20.2032 0.2628 C 23.0112 -0.648 26.028 0.8892 26.9424 3.7008 C 27.8532 6.5088 26.316 9.5256 23.5044 10.44 C 20.6964 11.3508 17.6796 9.8136 16.7652 7.002 C 15.8544 4.1904 17.3952 1.1736 20.2032 0.2628 Z"
  />

  <view id="45" viewBox="700 500 100 200" />
  <rect x="700" y="500" width="100" height="200" fill="none" />
  <rect x="711" y="505" width="90" height="190" fill="#ffff00" />

  <view id="46" viewBox="700 700 100 200" />
  <rect x="700" y="700" width="100" height="200" fill="none" />
  <rect x="711" y="705" width="90" height="190" fill="#dfdf00" />


  <view id="47" viewBox="700 900 200 100" />
  <rect x="700" y="900" width="200" height="100" fill="none" />
  <rect x="705" y="911" width="190" height="90" fill="#ffff00" />

  <view id="48" viewBox="700 1000 200 100" />
  <rect x="700" y="1000" width="200" height="100" fill="none" />
  <rect x="705" y="1011" width="190" height="90" fill="#dfdf00" />


  <!-- PINK x900     4 => "229, 107 ,134" E56B86-->

  <view id="50" viewBox="900 0 100 100" />
  <rect x="900" y="0" width="100" height="100" fill="none" />
  <circle cx="956" cy="56" r="36" fill="#FF7790" />

  <view id="51" viewBox="900 100 100 100" />
  <rect x="900" y="100" width="100" height="100" fill="none" />
  <circle cx="956" cy="156" r="36" fill="#E56B86" />

  <view id="52" viewBox="900 200 100 100" />
  <rect x="900" y="200" width="100" height="100" fill="none" />
  <circle cx="956" cy="256" r="36" fill="#CC5F79" />

  <view id="53" viewBox="900 300 100 100" />
  <rect x="900" y="300" width="100" height="100" fill="none" />
  <circle cx="956" cy="356" r="25" stroke="#E56B86" stroke-width="16" fill="none" />

  <view id="54" viewBox="900     400         100          100" />
  <rect x="900" y="400" width="100" height="100" fill="none" />
  <circle cx="950" cy="454" r="35" stroke="#CC5F79" stroke-width="4" fill="none" />
  <path transform="translate(931 431)" fill="#CC5F79"
    d="M 2.9916 38.9592 C 4.7088 38.8008 9.4968 38.3904 10.998 36.0756 C 11.1492 35.8416 12.402 33.7644 12.402 33.7536 L 17.5716 35.7228 C 17.6832 36.288 14.652 40.5216 14.1012 40.9788 C 13.3992 41.562 12.726 41.8824 12.0132 42.1524 C 9.6192 43.0524 7.56 43.7796 4.8456 44.2368 Z M 13.6836 17.802 L 11.4732 25.8084 C 10.9476 28.3968 11.5164 30.5892 13.9536 32.1012 C 15.2244 32.8896 15.5808 32.85 17.0352 33.2712 L 23.7492 34.812 C 24.1488 34.902 32.1264 41.3604 32.8752 42.0048 L 36.3204 38.9016 C 36.8208 38.4516 28.3716 30.996 26.8992 30.2652 C 19.908 26.7984 19.6128 30.762 22.2444 20.7576 C 23.58 22.0608 24.5916 23.5152 27.126 24.5088 C 30.2112 25.2972 31.932 24.21 34.4988 23.3784 L 37.8154 22.0068 L 36.1702 17.3592 L 32.8536 18.7308 C 32.7456 18.7668 32.472 18.8676 31.9932 19.0332 C 30.8052 19.3212 29.754 20.0772 29.0016 19.7136 C 26.5068 18.5076 25.0272 13.4172 18.0612 12.8628 C 17.0136 12.78 15.066 12.5172 13.5468 12.474 C 7.8984 12.1464 5.9724 14.2632 2.88 17.4384 C 1.458 18.8136 1.4364 18.7992 0 20.1636 L 3.654 23.7996 C 5.1012 22.4244 5.1336 22.4316 6.5664 21.042 C 7.866 19.8 8.7552 18.5184 10.0908 17.9712 C 10.9584 17.6148 12.078 17.7624 13.41 17.7876 C 13.5036 17.7948 13.5936 17.7984 13.6836 17.802 Z M 20.2032 0.2628 C 23.0112 -0.648 26.028 0.8892 26.9424 3.7008 C 27.8532 6.5088 26.316 9.5256 23.5044 10.44 C 20.6964 11.3508 17.6796 9.8136 16.7652 7.002 C 15.8544 4.1904 17.3952 1.1736 20.2032 0.2628 Z"
  />

  <view id="55" viewBox="900 900 100 200" />
  <rect x="900" y="900" width="100" height="200" fill="none" />
  <rect x="920" y="541" width="72" height="120" fill="#FF7790" />
  <circle cx="956" cy="541" r="36" fill="#FF7790" />
  <circle cx="956" cy="659" r="36" fill="#FF7790" />

  <view id="56" viewBox="900 700 100 200" />
  <rect x="900" y="700" width="100" height="200" fill="none" />
  <rect x="920" y="741" width="72" height="120" fill="#E56B86" />
  <circle cx="956" cy="741" r="36" fill="#E56B86" />
  <circle cx="956" cy="859" r="36" fill="#E56B86" />

  <view id="57" viewBox="900 900 200 100" />
  <rect x="900" y="900" width="200" height="100" fill="none" />
  <rect x="940" y="910" width="120" height="72" fill="#FF7790" />
  <circle cx="942" cy="946" r="36" fill="#FF7790" />
  <circle cx="1060" cy="946" r="36" fill="#FF7790" />

  <view id="58" viewBox="900 1000 200 100" />
  <rect x="900" y="1000" width="200" height="100" fill="none" />
  <rect x="940" y="1010" width="120" height="72" fill="#E56B86" />
  <circle cx="942" cy="1046" r="36" fill="#E56B86" />
  <circle cx="1060" cy="1046" r="36" fill="#E56B86" />


  <!-- ORANGE x1100    5 => "223, 143 , 0" df8f00 -->

  <view id="60" viewBox="1100 0 100 100" />
  <rect x="1100" y="0" width="100" height="100" fill="none" />
  <polygon points="1156,10      1199,99    1112,99" fill="#ffaf00" />

  <view id="61" viewBox="1100 100 100 100" />
  <rect x="1100" y="100" width="100" height="100" fill="none" />
  <polygon points="1156,110      1199,199    1112,199" fill="#df8f00" />

  <iew id="62" viewBox="1100 200 100 100" />
  <rect x="1100" y="200" width="100" height="100" fill="none" />
  <polygon points="1156,210      1199,299    1112,299" fill="#af6f00" />

  <view id="63" viewBox="1100     300         100          100" />
  <rect x="1100" y="300" width="100" height="100" fill="none" />
  <polygon points="1155,323     1184,386    1126,386 " stroke="#df8f00" stroke-width="16"
    fill="none" />

  <view id="64" viewBox="1100     400         100          100" />
  <rect x="1100" y="400" width="100" height="100" fill="none" />
  <polygon points="1150,404      1188,480    1112,480" stroke="#df8f00" stroke-width="4"
    fill="none" />
  <path transform="translate(1131 431)" fill="#df8f00"
    d="M 2.9916 38.9592 C 4.7088 38.8008 9.4968 38.3904 10.998 36.0756 C 11.1492 35.8416 12.402 33.7644 12.402 33.7536 L 17.5716 35.7228 C 17.6832 36.288 14.652 40.5216 14.1012 40.9788 C 13.3992 41.562 12.726 41.8824 12.0132 42.1524 C 9.6192 43.0524 7.56 43.7796 4.8456 44.2368 Z M 13.6836 17.802 L 11.4732 25.8084 C 10.9476 28.3968 11.5164 30.5892 13.9536 32.1012 C 15.2244 32.8896 15.5808 32.85 17.0352 33.2712 L 23.7492 34.812 C 24.1488 34.902 32.1264 41.3604 32.8752 42.0048 L 36.3204 38.9016 C 36.8208 38.4516 28.3716 30.996 26.8992 30.2652 C 19.908 26.7984 19.6128 30.762 22.2444 20.7576 C 23.58 22.0608 24.5916 23.5152 27.126 24.5088 C 30.2112 25.2972 31.932 24.21 34.4988 23.3784 L 37.8154 22.0068 L 36.1702 17.3592 L 32.8536 18.7308 C 32.7456 18.7668 32.472 18.8676 31.9932 19.0332 C 30.8052 19.3212 29.754 20.0772 29.0016 19.7136 C 26.5068 18.5076 25.0272 13.4172 18.0612 12.8628 C 17.0136 12.78 15.066 12.5172 13.5468 12.474 C 7.8984 12.1464 5.9724 14.2632 2.88 17.4384 C 1.458 18.8136 1.4364 18.7992 0 20.1636 L 3.654 23.7996 C 5.1012 22.4244 5.1336 22.4316 6.5664 21.042 C 7.866 19.8 8.7552 18.5184 10.0908 17.9712 C 10.9584 17.6148 12.078 17.7624 13.41 17.7876 C 13.5036 17.7948 13.5936 17.7984 13.6836 17.802 Z M 20.2032 0.2628 C 23.0112 -0.648 26.028 0.8892 26.9424 3.7008 C 27.8532 6.5088 26.316 9.5256 23.5044 10.44 C 20.6964 11.3508 17.6796 9.8136 16.7652 7.002 C 15.8544 4.1904 17.3952 1.1736 20.2032 0.2628 Z"
  />

  <view id="65" viewBox="1100 500 100 200" />
  <rect x="1100" y="500" width="100" height="200" fill="none" />
  <polygon points="1156,505      1199,600    1113,600" fill="#ffaf00" />
  <polygon points="1156,695      1199,600    1113,600" fill="#ffaf00" />
  <polygon points="1156,660      1199,550   1112,550" fill="#ffaf00" />
  <polygon points="1156,560      1199,650    1112,650" fill="#ffaf00" />

  <view id="66" viewBox="1100 700 100 200" />
  <rect x="1100" y="700" width="100" height="200" fill="none" />
  <polygon points="1156,705     1199,800    1113,800" fill="#df8f00" />
  <polygon points="1156,895      1199,800    1113,800" fill="#df8f00" />

  <polygon points="1156,860      1199,750    1112,750" fill="#df8f00" />
  <polygon points="1156,760      1199,850    1112,850" fill="#df8f00" />


  <!-- Cyan x1300    6 => "0, 223 ,223" 00dfdf -->
  <view id="70" viewBox="1300 0 100 100" />
  <rect x="1300" y="0" width="100" height="100" fill="#00ffff" />

  <view id="71" viewBox="1300 100 100 100" />
  <rect x="1300" y="100" width="100" height="100" fill="#00dfdf" />

  <view id="72" viewBox="1300 200 100 100" />
  <rect x="1300" y="200" width="100" height="100" fill="#00bfbf" />

  <view id="73" viewBox="1300     300         100          100" />
  <rect x="1300" y="300" width="100" height="100" fill="none" />
  <rect x="1331" y="330" width="50" height="51" fill="none" stroke="#00dfdf"
    stroke-width="16" />


  <view id="74" viewBox="1300     400         100          100" />
  <rect x="1300" y="400" width="100" height="100" fill="none" />
  <rect x="1316" y="416" width="68" height="68" fill="none" stroke="#00dfdf" stroke-width="4" />
  <path transform="translate(1331 431)" fill="#00dfdf"
    d="M 2.9916 38.9592 C 4.7088 38.8008 9.4968 38.3904 10.998 36.0756 C 11.1492 35.8416 12.402 33.7644 12.402 33.7536 L 17.5716 35.7228 C 17.6832 36.288 14.652 40.5216 14.1012 40.9788 C 13.3992 41.562 12.726 41.8824 12.0132 42.1524 C 9.6192 43.0524 7.56 43.7796 4.8456 44.2368 Z M 13.6836 17.802 L 11.4732 25.8084 C 10.9476 28.3968 11.5164 30.5892 13.9536 32.1012 C 15.2244 32.8896 15.5808 32.85 17.0352 33.2712 L 23.7492 34.812 C 24.1488 34.902 32.1264 41.3604 32.8752 42.0048 L 36.3204 38.9016 C 36.8208 38.4516 28.3716 30.996 26.8992 30.2652 C 19.908 26.7984 19.6128 30.762 22.2444 20.7576 C 23.58 22.0608 24.5916 23.5152 27.126 24.5088 C 30.2112 25.2972 31.932 24.21 34.4988 23.3784 L 37.8154 22.0068 L 36.1702 17.3592 L 32.8536 18.7308 C 32.7456 18.7668 32.472 18.8676 31.9932 19.0332 C 30.8052 19.3212 29.754 20.0772 29.0016 19.7136 C 26.5068 18.5076 25.0272 13.4172 18.0612 12.8628 C 17.0136 12.78 15.066 12.5172 13.5468 12.474 C 7.8984 12.1464 5.9724 14.2632 2.88 17.4384 C 1.458 18.8136 1.4364 18.7992 0 20.1636 L 3.654 23.7996 C 5.1012 22.4244 5.1336 22.4316 6.5664 21.042 C 7.866 19.8 8.7552 18.5184 10.0908 17.9712 C 10.9584 17.6148 12.078 17.7624 13.41 17.7876 C 13.5036 17.7948 13.5936 17.7984 13.6836 17.802 Z M 20.2032 0.2628 C 23.0112 -0.648 26.028 0.8892 26.9424 3.13008 C 27.8532 6.5088 26.316 9.5256 23.5044 10.44 C 20.6964 11.3508 17.6796 9.8136 16.7652 7.002 C 15.8544 4.1904 17.3952 1.1736 20.2032 0.2628 Z"
  />

  <view id="75" viewBox="1300 500 100 200" />
  <rect x="1300" y="500" width="100" height="200" fill="none" />
  <rect x="1311" y="505" width="90" height="190" fill="#00ffff" />

  <view id="76" viewBox="1300 1300 100 200" />
  <rect x="1300" y="1300" width="100" height="200" fill="none" />
  <rect x="1311" y="705" width="90" height="190" fill="#00dfdf" />


  <view id="77" viewBox="1300 900 200 100" />
  <rect x="1300" y="900" width="200" height="100" fill="none" />
  <rect x="1305" y="911" width="190" height="90" fill="#00ffff" />

  <view id="78" viewBox="1300 1000 200 100" />
  <rect x="1300" y="1000" width="200" height="100" fill="none" />
  <rect x="1305" y="1011" width="190" height="90" fill="#00dfdf" />


  <!-- PURPLE x1500    7 => "143, 0, 223" 8f00df -->
  <view id="80" viewBox="1500 0 100 100" />
  <rect x="1500" y="0" width="100" height="100" fill="none" />
  <circle cx="1556" cy="56" r="36" fill="#af00ff" />

  <view id="81" viewBox="1500 100 100 100" />
  <rect x="1500" y="100" width="100" height="100" fill="none" />
  <circle cx="1556" cy="156" r="36" fill="#8f00df" />

  <view id="82" viewBox="1500 200 100 100" />
  <rect x="1500" y="200" width="100" height="100" fill="none" />
  <circle cx="1556" cy="256" r="36" fill="#6f00af" />

  <view id="83" viewBox="1500 300 100 100" />
  <rect x="1500" y="300" width="100" height="100" fill="none" />
  <circle cx="1556" cy="356" r="25" stroke="#8f00df" stroke-width="16" fill="none" />

  <view id="84" viewBox="1500     400         100          100" />
  <rect x="1500" y="400" width="100" height="100" fill="none" />
  <circle cx="1550" cy="454" r="35" stroke="#8f00df" stroke-width="4" fill="none" />
  <path transform="translate(1531 431)" fill="#8f00df"
    d="M 2.9916 38.9592 C 4.7088 38.15008 9.4968 38.3904 10.998 36.0756 C 11.1492 35.8416 12.402 33.7644 12.402 33.7536 L 17.5716 35.7228 C 17.6832 36.288 14.652 40.5216 14.1012 40.9788 C 13.3992 41.562 12.726 41.8824 12.0132 42.1524 C 9.6192 43.0524 7.56 43.7796 4.8456 44.2368 Z M 13.6836 17.802 L 11.4732 25.8084 C 10.9476 28.3968 11.5164 30.5892 13.9536 32.1012 C 15.2244 32.8896 15.5808 32.85 17.0352 33.2712 L 23.7492 34.812 C 24.1488 34.902 32.1264 41.3604 32.8752 42.0048 L 36.3204 38.9016 C 36.8208 38.4516 28.3716 30.996 26.8992 30.2652 C 19.908 26.7984 19.6128 30.762 22.2444 20.7576 C 23.58 22.0608 24.5916 23.5152 27.126 24.5088 C 30.2112 25.2972 31.932 24.21 34.4988 23.3784 L 37.8154 22.0068 L 36.1702 17.3592 L 32.8536 18.7308 C 32.7456 18.7668 32.472 18.8676 31.9932 19.0332 C 30.8052 19.3212 29.754 20.0772 29.0016 19.7136 C 26.5068 18.5076 25.0272 13.4172 18.0612 12.8628 C 17.0136 12.78 15.066 12.5172 13.5468 12.474 C 7.8984 12.1464 5.9724 14.2632 2.88 17.4384 C 1.458 18.8136 1.4364 18.7992 0 20.1636 L 3.654 23.7996 C 5.1012 22.4244 5.1336 22.4316 6.5664 21.042 C 7.866 19.8 8.7552 18.5184 10.0908 17.9712 C 10.9584 17.6148 12.078 17.7624 13.41 17.7876 C 13.5036 17.7948 13.5936 17.7984 13.6836 17.802 Z M 20.2032 0.2628 C 23.0112 -0.648 26.028 0.8892 26.9424 3.7008 C 27.8532 6.5088 26.316 9.5256 23.5044 10.44 C 20.6964 11.3508 17.6796 9.8136 16.7652 7.002 C 15.8544 4.1904 17.3952 1.1736 20.2032 0.2628 Z"
  />

  <view id="85" viewBox="1500 500 100 200" />
  <rect x="1500" y="500" width="100" height="200" fill="none" />
  <rect x="1520" y="541" width="72" height="120" fill="#af00ff" />
  <circle cx="1556" cy="541" r="36" fill="#af00ff" />
  <circle cx="1556" cy="659" r="36" fill="#af00ff" />

  <view id="86" viewBox="1500 700 100 200" />
  <rect x="1500" y="700" width="100" height="200" fill="none" />
  <rect x="1520" y="741" width="72" height="120" fill="#8f00df" />
  <circle cx="1556" cy="741" r="36" fill="#8f00df" />
  <circle cx="1556" cy="859" r="36" fill="#8f00df" />

  <view id="87" viewBox="1500 900 200 100" />
  <rect x="1500" y="900" width="200" height="100" fill="none" />
  <rect x="1540" y="910" width="120" height="72" fill="#af00ff" />
  <circle cx="1542" cy="946" r="36" fill="#af00ff" />
  <circle cx="1660" cy="946" r="36" fill="#af00ff" />

  <view id="88" viewBox="1500 1000 200 100" />
  <rect x="1500" y="1000" width="200" height="100" fill="none" />
  <rect x="1540" y="1010" width="120" height="72" fill="#8f00df" />
  <circle cx="1542" cy="1046" r="36" fill="#8f00df" />
  <circle cx="1660" cy="1046" r="36" fill="#8f00df" />


  <!-- Deep Sky x1700    8 => "0, 143 ,223" 008fdf -->
  <view id="90" viewBox="1700 0 100 100" />
  <rect x="1700" y="0" width="100" height="100" fill="none" />
  <polygon points="1756,10      1799,99    1712,99" fill="#00afff" />

  <view id="91" viewBox="1700 100 100 100" />
  <rect x="1700" y="100" width="100" height="100" fill="none" />
  <polygon points="1756,110      1799,199    1712,199" fill="#008fdf" />

  <view id="92" viewBox="1700 200 100 100" />
  <rect x="1700" y="200" width="100" height="100" fill="none" />
  <polygon points="1756,210      1799,299    1712,299" fill="#006faf" />

  <view id="933" viewBox="1700     300         100          100" />
  <rect x="1700" y="300" width="100" height="100" fill="none" />
  <polygon points="1755,323     1784,386    1726,386 " stroke="#008fdf" stroke-width="16"
    fill="none" />

  <view id="94" viewBox="1700     400         100          100" />
  <rect x="1700" y="400" width="100" height="100" fill="none" />
  <polygon points="1750,404      1788,480    1712,480" stroke="#008fdf" stroke-width="4"
    fill="none" />
  <path transform="translate(1731 431)" fill="#008fdf"
    d="M 2.9916 38.9592 C 4.7088 38.8008 9.4968 38.3904 10.998 36.0756 C 11.1492 35.8416 12.402 33.7644 12.402 33.7536 L 17.5716 35.7228 C 17.6832 36.288 14.652 40.5216 14.1012 40.9788 C 13.3992 41.562 12.726 41.8824 12.0132 42.1524 C 9.6192 43.0524 7.56 43.7796 4.8456 44.2368 Z M 13.6836 17.802 L 11.4732 25.8084 C 10.9476 28.3968 11.5164 30.5892 13.9536 32.1012 C 15.2244 32.8896 15.5808 32.85 17.0352 33.2712 L 23.7492 34.812 C 24.1488 34.902 32.1264 41.3604 32.8752 42.0048 L 36.3204 38.9016 C 36.8208 38.4516 28.3716 30.996 26.8992 30.2652 C 19.908 26.7984 19.6128 30.762 22.2444 20.7576 C 23.58 22.0608 24.5916 23.5152 27.126 24.5088 C 30.2112 25.2972 31.932 24.21 34.4988 23.3784 L 37.8154 22.0068 L 36.1702 17.3592 L 32.8536 18.7308 C 32.7456 18.7668 32.472 18.8676 31.9932 19.0332 C 30.8052 19.3212 29.754 20.0772 29.0016 19.7136 C 26.5068 18.5076 25.0272 13.4172 18.0612 12.8628 C 17.0136 12.78 15.066 12.5172 13.5468 12.474 C 7.8984 12.1464 5.9724 14.2632 2.88 17.4384 C 1.458 18.8136 1.4364 18.7992 0 20.1636 L 3.654 23.7996 C 5.1012 22.4244 5.1336 22.4316 6.5664 21.042 C 7.866 19.8 8.7552 18.5184 10.0908 17.9712 C 10.9584 17.6148 12.078 17.7624 13.41 17.7876 C 13.5036 17.7948 13.5936 17.7984 13.6836 17.802 Z M 20.2032 0.2628 C 23.0112 -0.648 26.028 0.8892 26.9424 3.7008 C 27.8532 6.5088 26.316 9.5256 23.5044 10.44 C 20.6964 11.3508 17.6796 9.8136 16.7652 7.002 C 15.8544 4.1904 17.3952 1.1736 20.2032 0.2628 Z"
  />

  <view id="95" viewBox="1700 500 100 200" />
  <rect x="1700" y="500" width="100" height="200" fill="none" />
  <polygon points="1756,505      1799,600    1713,600" fill="#00afff" />
  <polygon points="1756,695      1799,600    1713,600" fill="#00afff" />
  <polygon points="1756,660      1799,550    1712,550" fill="#00afff" />
  <polygon points="1756,560      1799,650    1712,650" fill="#00afff" />

  <view id="96" viewBox="1700 700 100 200" />
  <rect x="1700" y="700" width="100" height="200" fill="none" />
  <polygon points="1756,705      1799,800    1713,800" fill="#008fdf" />
  <polygon points="1756,895      1799,800    1713,800" fill="#008fdf" />
  <polygon points="1756,860      1799,750    1712,750" fill="#008fdf" />
  <polygon points="1756,760      1799,850    1712,850" fill="#008fdf" />

</svg>