<?xml version="1.0" encoding="UTF-8" standalone="no"?>
<svg
   xmlns:dc="http://purl.org/dc/elements/1.1/"
   xmlns:cc="http://creativecommons.org/ns#"
   xmlns:rdf="http://www.w3.org/1999/02/22-rdf-syntax-ns#"
   xmlns:svg="http://www.w3.org/2000/svg"
   xmlns="http://www.w3.org/2000/svg"
   xmlns:sodipodi="http://sodipodi.sourceforge.net/DTD/sodipodi-0.dtd"
   xmlns:inkscape="http://www.inkscape.org/namespaces/inkscape"
   version="1.1"
   id="Layer_1"
   x="0px"
   y="0px"
   viewBox="0 0 106.41 122.88"
   style="enable-background:new 0 0 106.41 122.88"
   xml:space="preserve"
   sodipodi:docname="jump_100.svg"
   inkscape:version="1.0.1 (3bc2e813f5, 2020-09-07)"><metadata
   id="metadata141"><rdf:RDF><cc:Work
       rdf:about=""><dc:format>image/svg+xml</dc:format><dc:type
         rdf:resource="http://purl.org/dc/dcmitype/StillImage" /><dc:title></dc:title></cc:Work></rdf:RDF></metadata><defs
   id="defs139" /><sodipodi:namedview
   pagecolor="#ffffff"
   bordercolor="#666666"
   borderopacity="1"
   objecttolerance="10"
   gridtolerance="10"
   guidetolerance="10"
   inkscape:pageopacity="0"
   inkscape:pageshadow="2"
   inkscape:window-width="1418"
   inkscape:window-height="817"
   id="namedview137"
   showgrid="false"
   inkscape:zoom="2.4725374"
   inkscape:cx="53.205002"
   inkscape:cy="61.439999"
   inkscape:window-x="0"
   inkscape:window-y="0"
   inkscape:window-maximized="0"
   inkscape:current-layer="Layer_1" /><g
   id="g134"
   transform="matrix(0.81381193,0,0,0.81381193,0,-0.00121018)">
  <path
   fill="#000000"
   d="m 8.31,108.22 c 4.77,-0.44 18.07,-1.58 22.24,-8.01 0.42,-0.65 3.9,-6.42 3.9,-6.45 l 14.36,5.47 c 0.31,1.57 -8.11,13.33 -9.64,14.6 -1.95,1.62 -3.82,2.51 -5.8,3.26 -6.65,2.5 -12.37,4.52 -19.91,5.79 z m 29.7,-58.77 -6.14,22.24 c -1.46,7.19 0.12,13.28 6.89,17.48 3.53,2.19 4.52,2.08 8.56,3.25 l 18.65,4.28 c 1.11,0.25 23.27,18.19 25.35,19.98 l 9.57,-8.62 C 102.28,106.81 78.81,86.1 74.72,84.07 55.3,74.44 54.48,85.45 61.79,57.66 c 3.71,3.62 6.52,7.66 13.56,10.42 8.57,2.19 13.35,-0.83 20.48,-3.14 l 10.59,-3.81 -4.57,-12.91 -10.59,3.81 c -0.3,0.1 -1.06,0.38 -2.39,0.84 -3.3,0.8 -6.22,2.9 -8.31,1.89 C 73.63,51.41 69.52,37.27 50.17,35.73 47.26,35.5 41.85,34.77 37.63,34.65 21.94,33.74 16.59,39.62 8,48.44 4.05,52.26 3.99,52.22 0,56.01 l 10.15,10.1 c 4.02,-3.82 4.11,-3.8 8.09,-7.66 3.61,-3.45 6.08,-7.01 9.79,-8.53 2.41,-0.99 5.52,-0.58 9.22,-0.51 0.26,0.02 0.51,0.03 0.76,0.04 z M 56.12,0.73 C 63.92,-1.8 72.3,2.47 74.84,10.28 77.37,18.08 73.1,26.46 65.29,29 57.49,31.53 49.11,27.26 46.57,19.45 44.04,11.64 48.32,3.26 56.12,0.73 Z"
   id="path132" />
</g>

</svg>
