<svg viewBox="0 0 395 395" width="395" height="395" xmlns="http://www.w3.org/2000/svg">

  <rect x="0" y="-1" width="395" height="1" />

  <rect x="0" y="8" width="395" height="1" />
  <rect x="0" y="17" width="395" height="1" />
  <rect x="0" y="26" width="395" height="1" />
  <rect x="0" y="35" width="395" height="1" />
  <rect x="0" y="44" width="395" height="1" />
  <rect x="0" y="53" width="395" height="1" />
  <rect x="0" y="62" width="395" height="1" />
  <rect x="0" y="71" width="395" height="1" />
  <rect x="0" y="80" width="395" height="1" />
  <rect x="0" y="89" width="395" height="1" />
  <rect x="0" y="98" width="395" height="1" />
  <rect x="0" y="107" width="395" height="1" />
  <rect x="0" y="116" width="395" height="1" />
  <rect x="0" y="125" width="395" height="1" />
  <rect x="0" y="134" width="395" height="1" />
  <rect x="0" y="143" width="395" height="1" />
  <rect x="0" y="152" width="395" height="1" />
  <rect x="0" y="161" width="395" height="1" />
  <rect x="0" y="170" width="395" height="1" />
  <rect x="0" y="179" width="395" height="1" />
  <rect x="0" y="188" width="395" height="1" />
  <rect x="0" y="197" width="395" height="1" />
  <rect x="0" y="206" width="395" height="1" />
  <rect x="0" y="215" width="395" height="1" />
  <rect x="0" y="224" width="395" height="1" />
  <rect x="0" y="233" width="395" height="1" />
  <rect x="0" y="242" width="395" height="1" />
  <rect x="0" y="251" width="395" height="1" />
  <rect x="0" y="260" width="395" height="1" />
  <rect x="0" y="269" width="395" height="1" />
  <rect x="0" y="278" width="395" height="1" />
  <rect x="0" y="287" width="395" height="1" />
  <rect x="0" y="296" width="395" height="1" />
  <rect x="0" y="305" width="395" height="1" />
  <rect x="0" y="314" width="395" height="1" />
  <rect x="0" y="323" width="395" height="1" />
  <rect x="0" y="332" width="395" height="1" />
  <rect x="0" y="341" width="395" height="1" />
  <rect x="0" y="350" width="395" height="1" />
  <rect x="0" y="359" width="395" height="1" />
  <rect x="0" y="368" width="395" height="1" />
  <rect x="0" y="377" width="395" height="1" />
  <rect x="0" y="386" width="395" height="1" />

  <rect x="0" y="395" width="395" height="1" />


  <rect y="0" x="-1" height="395" width="1" />

  <rect y="0" x="8" height="395" width="1" />
  <rect y="0" x="17" height="395" width="1" />
  <rect y="0" x="26" height="395" width="1" />
  <rect y="0" x="35" height="395" width="1" />
  <rect y="0" x="44" height="395" width="1" />
  <rect y="0" x="53" height="395" width="1" />
  <rect y="0" x="62" height="395" width="1" />
  <rect y="0" x="71" height="395" width="1" />
  <rect y="0" x="80" height="395" width="1" />
  <rect y="0" x="89" height="395" width="1" />
  <rect y="0" x="98" height="395" width="1" />
  <rect y="0" x="107" height="395" width="1" />
  <rect y="0" x="116" height="395" width="1" />
  <rect y="0" x="125" height="395" width="1" />
  <rect y="0" x="134" height="395" width="1" />
  <rect y="0" x="143" height="395" width="1" />
  <rect y="0" x="152" height="395" width="1" />
  <rect y="0" x="161" height="395" width="1" />
  <rect y="0" x="170" height="395" width="1" />
  <rect y="0" x="179" height="395" width="1" />
  <rect y="0" x="188" height="395" width="1" />
  <rect y="0" x="197" height="395" width="1" />
  <rect y="0" x="206" height="395" width="1" />
  <rect y="0" x="215" height="395" width="1" />
  <rect y="0" x="224" height="395" width="1" />
  <rect y="0" x="233" height="395" width="1" />
  <rect y="0" x="242" height="395" width="1" />
  <rect y="0" x="251" height="395" width="1" />
  <rect y="0" x="260" height="395" width="1" />
  <rect y="0" x="269" height="395" width="1" />
  <rect y="0" x="278" height="395" width="1" />
  <rect y="0" x="287" height="395" width="1" />
  <rect y="0" x="296" height="395" width="1" />
  <rect y="0" x="305" height="395" width="1" />
  <rect y="0" x="314" height="395" width="1" />
  <rect y="0" x="323" height="395" width="1" />
  <rect y="0" x="332" height="395" width="1" />
  <rect y="0" x="341" height="395" width="1" />
  <rect y="0" x="350" height="395" width="1" />
  <rect y="0" x="359" height="395" width="1" />
  <rect y="0" x="368" height="395" width="1" />
  <rect y="0" x="377" height="395" width="1" />
  <rect y="0" x="386" height="395" width="1" />

  <rect y="0" x="395" height="395" width="1" />

</svg>